# xmcd
# Track frame offsets:
# 150
# 16881
# 32758
# 50815
# 77995
# 91768
# 108930
# 127043
# 146594
# 160836
# 179476
#
# Disc length: 2609 seconds
# Revision: 0
# Processed by: cddbd v1.5.2PL0 Copyright (c) Steve Scherf et al.
# Submitted via: VisiTrax 2.11.0.264 - For more info visit www.synapsa.com
#
DISCID=8f0a2f0b
DTITLE=John Anderson - Easy Money
DYEAR=2007
DGENRE=
TTITLE0=John Anderson - Easy Money
TTITLE1=John Anderson - A Woman Knows
TTITLE2=John Anderson - Funky Country
TTITLE3=John Anderson - Bonnie Blue
TTITLE4=John Anderson - If Her Lovin' Don't Kill Me
TTITLE5=John Anderson - Something To Drink About
TTITLE6=John anderson - Weeds
TTITLE7=John Anderson - You Already Know My Love
TTITLE8=John Anderson - Brown Liquor
TTITLE9=John Anderson - I Can't Make Her Cry Anymore
TTITLE10=John Anderson - Willie's Guitar
EXTD=
EXTT0=
EXTT1=
EXTT2=
EXTT3=
EXTT4=
EXTT5=
EXTT6=
EXTT7=
EXTT8=
EXTT9=
EXTT10=
PLAYORDER=
